<svg fill="none" height="38" viewBox="0 0 99 38" width="99" xmlns="http://www.w3.org/2000/svg"><path d="m74.2151 35.7208v-4.1573c-.0007-.8389-.0122-1.6777-.0344-2.5164-.0192-.7508-.0465-1.5446-.0817-2.3816-.0374-.8802-.0806-1.7602-.1298-2.6401-.0315-.4197-.0508-.9823-.0578-1.6876-.0024-.2294-.0036-.4587-.0037-.6881-.0942-1.6556-.1522-3.0434-.1739-4.1633-.0066-.3177-.0101-.6356-.0105-.9534l.0615-2.5584c.041-.7614.0615-1.6142.0615-2.5584 0-.7066-.0152-1.3458-.0455-1.91783-.0048-.09169-.0102-.18336-.016-.27502-.041-.45685-.0717-.83756-.0922-1.14213-.0059-.08931-.0133-.17855-.0222-.26772-.0184-.18304-.0418-.33746-.0701-.46325l-.1229.3198c-.1221.60024-.249 1.19995-.3806 1.79909-.3631 1.65866-.8199 3.60836-1.3704 5.84906-.092.3746-.1847.749-.2779 1.1234-.9017 3.6244-1.6395 6.533-2.2133 8.7259-.5283 1.7951-.8828 3.1124-1.0636 3.9518-.0149.0685-.0292.137-.043.2056-.0734.3551-.2209.6489-.4427.8812-.0254.0267-.0521.0528-.0799.0782-.0765.0711-.1633.1358-.2588.1928-.1275.0746-.2609.125-.4003.1512-.0759.0143-.154.0215-.2324.0214-.2272-.0005-.4465-.0618-.6179-.1726-.0908-.057-.1723-.1217-.2428-.1928-.1056-.107-.1895-.2249-.249-.35-.0967-.1958-.1572-.4294-.1814-.7008-.0741-.367-.1547-.7333-.2416-1.0987-.464-1.9858-1.4286-5.7008-2.8939-11.145-.2118-.7873-.4247-1.5744-.6388-2.3614-1.2624-4.63982-2.0294-7.2786-2.3012-7.91637-.0178-.04785-.0421-.09423-.0725-.13843-.0632 1.42992-.1089 2.86023-.1371 4.2908-.0308 1.5106-.0465 3.1025-.0473 4.7754-.0001.0541-.0001.1082 0 .1622 0 2.6802.0204 5.1016.0614 7.264.0214 1.1447.0368 2.2894.0461 3.4342.0103 1.207.0154 2.4784.0154 3.8142v.0155c.0005.1304.0044.2608.0117.3911.0217.4179.0748.9672.1592 1.6479.0045.0361.009.0722.0136.1083l.1229 2.1928c.0007.1336-.0083.267-.027.3998-.0394.268-.1222.4808-.2484.6382-.0431.0546-.0951.1049-.1549.1499-.3011.0058-.5974-.0573-.8486-.1807-.2512-.1235-.4452-.3014-.5557-.5096-.2525-.3935-.3787-.9553-.3787-1.6854v-7.6294l.0615-4.6142c.041-1.3706.0615-2.9239.0615-4.6599-.0003-.8955.0043-1.7909.0135-2.6863.009-.8415.0223-1.6369.04-2.3862.0025-.1061.0052-.2122.008-.3184l.1229-5.43653v-4.02031c.0004-.11055.0507-.21782.1427-.30472.0398-.03867.0847-.07433.134-.10644.0657-.04414.1383-.08218.2164-.1133.113-.04527.2393-.06913.3676-.06944.2685 0 .4683.08162.5995.24487.0304.03842.0561.07878.0768.12061.3451.85462 1.1743 3.26817 2.4875 7.24066.0932.28185.1862.56373.2792.84563 1.1296 3.42787 2.043 6.25767 2.7401 8.48927.1961.6266.3894 1.2537.5798 1.8813.1082.4222.2135.8448.316 1.2678.3615 1.4853.8505 3.5907 1.4669 6.3159l.4304-1.7817c.0943-.4197.2244-.9644.3904-1.6341.0539-.2168.1082-.4335.1629-.6501.0582-.2809.1168-.5617.1759-.8425.3902-1.8521.6389-2.9114.7463-3.1778l2.8281-11.19294.5534-2.37564.6762-2.55837.3075-1.37056c.0409-.30457.1639-.54061.3688-.70812.0647-.05376.1378-.10161.2177-.14254.1343-.0702.2944-.10814.4586-.10873.1334.00046.263.03335.3689.09365.0562.03077.1103.06899.1623.11467.0075.00663.0149.01333.0221.02011.1345.12487.2138.29071.238.49751.0054.04725.0081.09466.008.14208v4.52284c.0012.64439.0127 1.28876.0344 1.93295.0689 2.14019.2402 4.93229.514 8.37639.0016.0204.0032.0408.0049.0612.2869 4.264.4303 7.6904.4303 10.2792.0005.2332.0044.4663.0117.6995.0226.7635.0779 1.7636.166 3.0001.0023.0308.0045.0615.0068.0923.0187.499.0363.998.0529 1.4971.0356 1.0754.0578 1.9276.0664 2.5565.0023.1717.0036.3433.0037.5149.0003.1357-.0026.2714-.0087.4071-.0184.3859-.0649.6671-.1395.8438-.0104.0251-.0225.0498-.0363.074-.1639.1827-.3894.2741-.6763.2741-.4939 0-.838-.085-1.0322-.2549-.0155-.0135-.0301-.0275-.0437-.0421-.064-.0711-.1141-.1486-.1488-.2302-.0684-.1535-.1094-.346-.1229-.5775-.0033-.0581-.005-.1163-.005-.1745zm-40.6386-.2284-.7377-2.0102c-1.1477-2.8325-1.9879-5.2233-2.5207-7.1726-.2509-.8162-.5499-1.8734-.897-3.1714-.1123-.4198-.2232-.8398-.3326-1.26-.5132-1.9618-.9938-3.5944-1.4418-4.8979-.0511-.1493-.1034-.2984-.1567-.4473l-.6148.2741-.7993.2741.123 17.5888v.6853c0 .6092-.3689.9137-1.1067.9137-.1248.0008-.249-.012-.3689-.0379-.1627-.0356-.3107-.1011-.4303-.1905-.0973-.0697-.1747-.1533-.2275-.2458s-.08-.1919-.0799-.2924c-.0001-.0033-.0001-.0067 0-.01v-.6853l.1229-9.2284.123-4.4315c.0586-1.8873.1086-3.7747.15-5.6622.032-1.4799.056-2.8826.0719-4.2081.0155-1.2479.0235-2.49592.024-3.7439v-5.89341c0-.24335.2908-.37873.8724-.40614.078-.0035.1561-.00517.2343-.00502 1.0656 0 2.0596.2132 2.9818.63959.9222.4264 1.6497 1.00508 2.1825 1.73604 1.1067 1.49239 1.66 3.12183 1.66 4.88833-.0056.761-.1152 1.51961-.3271 2.26411-.2045.7395-.5053 1.5077-.9025 2.3044-.098.1818-.1989.3627-.3025.5428-.0914.1589-.1887.3245-.292.4966-.1077.1794-.2169.3584-.3277.5368-.2836.4568-.5431.801-.7784 1.0324-.0628.0629-.1314.1224-.2053.1782.8529 2.3242 2.0885 5.8899 3.7067 10.6972.0145.0434.0291.0868.0436.1302l2.8896 8.2234c.0398.0883.0602.2476.0615.4778v.0247c0 .2741-.0718.5102-.2152.7081-.0436.0619-.1007.1179-.1691.1659-.1201.0825-.2686.1261-.4457.1306-.0103.0003-.0205.0005-.0308.0005-.6816 0-1.1507-.2106-1.4072-.6318-.0546-.0909-.098-.1853-.1298-.2819zm-20.1656-.3198v-5.9848c0-.3457-.9357-.6642-2.8072-.9557-.1093-.017-.2187-.0334-.3283-.0494-1.37181-.1998-2.58483-.3341-3.63902-.4029-.50715-.0344-1.01607-.0524-1.52533-.0539-.01159.0015-.02262.0048-.03237.0096-.00976.0049-.018.0113-.02419.0187-.08156.074-.19591.293-.34306.657-.17747.4398-.30761.7667-.3904.9808-.00308.0081-.00615.0162-.00922.0242-.53283 1.5838-1.06566 3.2742-1.59849 5.0711l-.3074 1.0051c-.01884.0593-.04973.1162-.09161.1686-.1078.1312-.2822.1969-.5232.1969-.3279 0-.62505-.0762-.891466-.2285-.085703-.0479-.162231-.1043-.227478-.1676-.112726-.1091-.173304-.243-.17215-.3806l.061478-.0914v-.0456l.676296-2.2843c.46507-1.3501.88388-2.7088 1.25604-4.0747.01173-.0428.02341-.0855.03504-.1283.40987-1.5533.71728-2.5584.92221-3.0153.30699-.9405.9009-3.201 1.78171-6.7815.06206-.2522.12395-.5043.18567-.7565l.36888-1.5077c.18589-.8186.37423-1.637.56501-2.4551.76605-3.282 1.31548-5.41796 1.64829-6.4078.15698-.5595.41008-1.32442.75929-2.29478.11396-.31666.22975-.63296.34736-.94888.19743-.58152.45962-1.14982.78388-1.69903.02528-.04291.05089-.0857.07685-.12838.06338-.08952.13038-.17758.20108-.26406.2151-.26163.4063-.42305.5736-.48427.0455-.01778.0961-.02748.1475-.02832.1793-.00106.3583.01242.5337.0402.2197.03594.4094.09655.5693.18183.1209.06456.2261.14397.3111.23482.2049.27411.5226 1.78173.9529 4.52284.4304 2.74112.8095 5.51273 1.1374 8.31473l.7993 7.5837c0 1.3039.1219 3.2719.3658 5.904.001.0117.002.0234.003.0351.246 2.6802.3689 4.6752.3689 5.9848v.1827c.001.1774-.0179.3545-.0565.5295-.0292.1304-.072.2588-.1279.3843-.0816.1174-.2158.2102-.3793.2622-.1992.0688-.4622.1032-.7888.1032-.1498.0012-.2987-.0169-.4402-.0534-.1444-.0384-.2769-.0979-.3898-.175-.2255-.1523-.3382-.335-.3382-.5482zm82.5684 0v-5.9848c0-.3457-.9358-.6642-2.8072-.9557-.1093-.017-.2188-.0334-.3283-.0494-1.3719-.1998-2.5849-.3341-3.6391-.4029-.5071-.0344-1.0161-.0524-1.5253-.0539-.0116.0015-.0226.0048-.0324.0096-.0097.0049-.018.0113-.0242.0187-.0815.074-.1959.293-.343.657-.1775.4398-.3076.7667-.3904.9808-.0031.0081-.0062.0162-.0093.0242-.5328 1.5838-1.0656 3.2742-1.5985 5.0711l-.3074 1.0051c-.0188.0593-.0497.1162-.0916.1686-.1078.1312-.2822.1969-.5232.1969-.3279 0-.625-.0762-.8914-.2285-.0857-.0479-.1623-.1043-.2275-.1676-.1127-.1091-.1733-.243-.1721-.3806l.0614-.0914v-.0456l.6763-2.2843c.4651-1.3501.8839-2.7088 1.2561-4.0747.0117-.0428.0234-.0855.035-.1283.4099-1.5533.7173-2.5584.9222-3.0153.307-.9405.9009-3.201 1.7817-6.7815.0621-.2522.124-.5043.1857-.7565l.3689-1.5077c.1859-.8186.3742-1.637.565-2.4551.766-3.282 1.3155-5.41796 1.6483-6.4078.157-.5595.41-1.32442.7593-2.29478.1139-.31666.2297-.63296.3473-.94888.1975-.58152.4597-1.14982.7839-1.69903.0253-.04291.0509-.0857.0768-.12838.0634-.08952.1305-.17758.2011-.26406.2152-.26163.4064-.42305.5736-.48427.0456-.01778.0961-.02748.1476-.02832.1793-.00106.3582.01242.5336.0402.2197.03594.4095.09655.5693.18183.1209.06456.2261.14397.3111.23482.2049.27411.5226 1.78173.953 4.52284.4303 2.74112.8094 5.51273 1.1373 8.31473l.7993 7.5837c0 1.3039.1219 3.2719.3658 5.904.001.0117.0021.0234.0031.0351.2459 2.6802.3689 4.6752.3689 5.9848v.1827c.0009.1774-.018.3545-.0566.5295-.0292.1304-.0719.2588-.1279.3843-.0816.1174-.2157.2102-.3793.2622-.1992.0688-.4621.1032-.7888.1032-.1498.0012-.2987-.0169-.4402-.0534-.1444-.0384-.2769-.0979-.3898-.175-.2254-.1523-.3381-.335-.3381-.5482zm-54.1029.0457v-.868c-.0406-.2419-.0611-.5135-.0615-.8151v-.0073-.0914l.0615-6.67-.0615-18.86802c0-1.3401-.0194-2.55777-.0584-3.653-.0163-.47281-.0379-.94552-.0645-1.41807-.0011-.13418.0145-.26816.0467-.4002.0406-.16051.1072-.30548.1998-.43493.0191-.02671.0394-.05292.0609-.07857.0583-.0709.129-.13573.2102-.1928.1584-.11254.3699-.17453.589-.17269h3.8118c.1501-.00015.3001.00228.45.00731.2714.00944.4993.02802.6837.05574.0529.00793.1054.01737.1574.02832.1299.02693.2482.07822.3437.14895.0955.07072.1649.1585.2016.25491.0345.07858.0562.16767.0652.26726.003.03513.0044.07033.0043.10553 0 .24366-.123.44163-.3689.59391-.2459.15229-.5123.24366-.7992.27411h-1.0452l-.9837-.04568-.9837-.04569c-.0651-.00021-.1301.00208-.1949.00686-.182.01431-.3117.0501-.3891.10736-.0869.06456-.1369.17878-.1501.34264-.0024.03042-.0036.06089-.0036.09137 0 1.43147.0205 2.72588.0614 3.88324v3.88324 5.7107c0 .0609.041.0913.123.0913h.0615.0615c.6363-.0372 1.2739-.0627 1.912-.0763.4692-.0101.9385-.0152 1.4079-.015.1248-.0011.2494.0084.3713.0283.4083.071.6124.2747.6124.6113.0003.068-.0041.136-.0129.2037-.0185.1371-.0574.2458-.1168.3262-.0228.0318-.0516.0611-.0855.0868-.141.1048-.3707.1581-.6892.1599-.0059 0-.0119 0-.0178 0h-3.5044c-.1639 0-.2459.0762-.2459.2284l.1229 6.7615c.0377.9804.0658 1.9609.0843 2.9416.0192 1.0048.0313 2.0664.0362 3.1848.0017.3791.0025.7583.0025 1.1375v1.6904h2.6437 2.5821.5534c.7377 0 1.1066.1979 1.1066.5939 0 .4873-.1844.7766-.5533.868-.1407.0332-.2846.0585-.4304.0758-.468.0594-1.1456.0942-2.0325.1042-.1832.0019-.3664.0028-.5497.0027h-2.5821c-.9837 0-1.6703-.0685-2.0596-.2055-.1401-.0479-.2627-.12-.3576-.2103s-.1593-.1961-.1878-.3087c-.0269-.0922-.0398-.1862-.0387-.2805zm-30.3714-28.46196-.2459-1.78172v.00274c-.0033.0134-.0443-.15503-.123-.50528l-.1229-.54822c-.1123.23201-.2138.46682-.3043.70401-.1902.49157-.3765 1.07345-.5589 1.74563-.0306.11228-.0606.22467-.0898.33716-.12251.47464-.23932.95009-.3504 1.42629-.09837.42122-.19777.86315-.29819 1.32579-.10473.48327-.20616.96696-.30432 1.45096-.98369 4.5381-1.82392 7.9492-2.5207 10.2335l-.55332 1.5533c-.49718 1.2311-.79331 2.2232-.8884 2.9764-.02164.1648-.03292.3302-.03382.4957v.2741c1.00709.2342 2.04041.4009 3.08756.498 1.03549.0969 2.07829.1442 3.12199.1416h.3689c.1229.0304.2664.0457.4303.0457.137.0005.2739-.0047.4101-.0156.2742-.0228.4796-.0712.616-.1452.0645-.0329.1169-.0771.1524-.1288.0356-.0517.0531-.1092.0511-.1673 0-1.7059-.117-3.977-.351-6.8135-.0257-.3101-.0521-.6201-.0793-.9301-.1186-1.3587-.2481-2.7168-.3886-4.0742-.1283-1.2381-.2604-2.4069-.3965-3.5064-.0444-.359-.0901-.718-.1371-1.0768-.082-1.06598-.2459-2.23857-.4919-3.51776zm82.5684 0-.246-1.78172v.00274c-.0032.0134-.0442-.15503-.1229-.50528l-.123-.54822c-.1122.23201-.2137.46682-.3043.70401-.1902.49157-.3765 1.07345-.5589 1.74563-.0306.11228-.0605.22467-.0897.33716-.1226.47464-.2394.95009-.3505 1.42629-.0983.42122-.1977.86315-.2982 1.32579-.1047.48327-.2061.96696-.3043 1.45096-.9837 4.5381-1.8239 7.9492-2.5207 10.2335l-.5533 1.5533c-.4972 1.2311-.7933 2.2232-.8884 2.9764-.0216.1648-.0329.3302-.0338.4957v.2741c1.0071.2342 2.0404.4009 3.0876.498 1.0354.0969 2.0782.1442 3.1219.1416h.3689c.123.0304.2664.0457.4304.0457.1369.0005.2739-.0047.4101-.0156.2742-.0228.4795-.0712.616-.1452.0644-.0329.1168-.0771.1524-.1288.0355-.0517.0531-.1092.0511-.1673 0-1.7059-.117-3.977-.3511-6.8135-.0256-.3101-.0521-.6201-.0793-.9301-.1185-1.3587-.2481-2.7168-.3885-4.0742-.1283-1.2381-.2605-2.4069-.3966-3.5064-.0443-.359-.09-.718-.1371-1.0768-.082-1.06598-.2459-2.23857-.4918-3.51776zm-67.7516-4.11167h-.1229c-.0341.02528-.082.04005-.1439.04431-.0135.00093-.027.00139-.0406.00138v12.88324c.0963-.0029.1908-.0201.2779-.0507.2709-.0871.6284-.2851 1.0722-.5939.105-.0732.2083-.1477.3099-.2234.7788-.5787 1.3321-1.066 1.66-1.4619.0975-.1477.1824-.2998.2539-.4555.1553-.3314.2963-.738.423-1.2198.0211-.0811.0414-.1622.0608-.2435.205-.8528.3074-1.61424.3074-2.28429 0-1.24873-.2869-2.52792-.8607-3.83757-.2816-.74771-.7015-1.35578-1.2597-1.82421-.0104-.00872-.0209-.0174-.0314-.02604-.1819-.15217-.3879-.28747-.6135-.40294-.3788-.19738-.8298-.30388-1.2924-.30518z" style="fill-rule:evenodd;clip-rule:evenodd;fill:#2bc0ff;stroke:#2bc0ff;stroke-width:.944882;stroke-linecap:round"/></svg>